# xmcd
#
# Track frame offsets:
# 150
# 14048
# 29528
# 50756
# 65487
# 77847
# 98385
# 113688
# 125711
# 142817
# 157959
# 173292
#
# Disc length: 2544 seconds
#
#
# Revision: 0
# Processed by: cddbd v1.4PL0 Copyright (c) Steve Scherf et al.
# Submitted via: FreeRIP 2.35 
#
DISCID=9409ee0c
DTITLE=Various Artist - THE BEST OF COUNTRY PIANO FADED LOVE
DYEAR=1900
DGENRE=
TTITLE0=SHE'S GOT YOU
TTITLE1=ALWAYS WANTING YOU
TTITLE2=THE DANCE
TTITLE3=WHOEVER'S IN NEW ENGLAND
TTITLE4=IF WWE MAKE IT THROUGH DECEMBER
TTITLE5=LAST DATE
TTITLE6=IF TOMORROW EVER COMES
TTITLE7=YOUR CHEATIN' HEART
TTITLE8=BLUE EYES CRYING IN THE RAIN
TTITLE9=IS THERE LIFE OUT THERE
TTITLE10=YOU WIN AGAIN
TTITLE11=FADED LOVE
EXTD=
EXTT0=
EXTT1=
EXTT2=
EXTT3=
EXTT4=
EXTT5=
EXTT6=
EXTT7=
EXTT8=
EXTT9=
EXTT10=
EXTT11=
PLAYORDER=
